# xmcd
#
# Track frame offsets:
#	150
#	20804
#	42715
#	70389
#	95951
#	113964
#	137020
#	160956
#	180392
#	194441
#
# Disc length: 2744 seconds
#
# Revision: 0
# Processed by: cddbd v1.5.1PL0 Copyright (c) Steve Scherf et al.
# Submitted via: dBpowerAMP V4.0
#
DISCID=980ab60a
DTITLE=Trapeze - The best of Trapeze High Flyers
DYEAR=1995
DGENRE=Blues Rock
TTITLE0=Sen me no more letters (UK Album)
TTITLE1=Your love is alright
TTITLE2=Black cloud
TTITLE3=Medusa
TTITLE4=Coast to coast
TTITLE5=Will our love end
TTITLE6=You are the music
TTITLE7=good love
TTITLE8=Dat's it
TTITLE9=Send me no more letters (UK single version)
EXTD=Glenn Hughes: bass\nMel Galley: Guitars\nDave Holland: drums\nTerry Rowley: organ, guitar, piano\nJohn Jones: trumpet
EXTT0=
EXTT1=
EXTT2=
EXTT3=
EXTT4=
EXTT5=
EXTT6=
EXTT7=
EXTT8=
EXTT9=
PLAYORDER=
